<svg xmlns="http://www.w3.org/2000/svg" viewBox="0 0 100 115.55"><defs><style>.cls-1{fill:#4472c4;}.cls-2{fill:#b4c7e7;}</style></defs><title>Fichier 6</title><g id="Calque_2" data-name="Calque 2"><g id="Calque_1-2" data-name="Calque 1"><rect class="cls-1" x="2.5" y="3" width="94.5" height="109.55"/><path class="cls-2" d="M2.5,3h20V0H2.5Zm0,2h20V4H2.5ZM3,8.6H0v20H3Zm2,0H4v20H5Zm-2,35H0v5H3Zm2,0H4v5H5Zm-2,20H0v20H3Zm2,0H4v20H5Zm-2,35H0v5H3Zm2,0H4v5H5Zm23.05,14h-20v3h20Zm0-2h-20v1h20Zm20,2h-5v3h5Zm0-2h-5v1h5Zm35,2h-20v3h20Zm0-2h-20v1h20Zm14,2h3v-5H97Zm-2,0h1v-5H95Zm2-20h3v-20H97Zm-2,0h1v-20H95Zm2-35h3v-5H97Zm-2,0h1v-5H95Zm2-20h3v-20H97Zm-2,0h1v-20H95ZM92.5,3h5V0h-5Zm0,2h5V4h-5Zm-35-2h20V0h-20Zm0,2h20V4h-20Zm-20-2h5V0h-5Zm0,2h5V4h-5Z"/></g></g></svg>