<svg xmlns="http://www.w3.org/2000/svg" viewBox="0 0 47.65 47.65"><defs><style>.cls-1{fill:#fff;fill-rule:evenodd;}.cls-2{fill:none;stroke:#8faadc;stroke-linecap:square;stroke-miterlimit:8;stroke-width:3px;stroke-dasharray:12 9 3 9;}</style></defs><title>Fichier 2</title><g id="Calque_2" data-name="Calque 2"><g id="Calque_1-2" data-name="Calque 1"><path class="cls-1" d="M8,8A22.33,22.33,0,0,1,45.59,28.81l-8-1.84a14.09,14.09,0,0,0-23.7-13.11Z"/><path class="cls-2" d="M8,8A22.33,22.33,0,0,1,45.59,28.81l-8-1.84a14.09,14.09,0,0,0-23.7-13.11Z"/><path class="cls-1" d="M39.61,39.61A22.33,22.33,0,0,1,2.06,18.84l8,1.84a14.09,14.09,0,0,0,23.7,13.11Z"/><path class="cls-2" d="M39.61,39.61A22.33,22.33,0,0,1,2.06,18.84l8,1.84a14.09,14.09,0,0,0,23.7,13.11Z"/></g></g></svg>